<?xml version="1.0" encoding="us-ascii" standalone="no"?><svg xmlns="http://www.w3.org/2000/svg" xmlns:xlink="http://www.w3.org/1999/xlink" contentStyleType="text/css" height="419px" preserveAspectRatio="none" style="width:642px;height:419px;background:#FFFFFF;" version="1.1" viewBox="0 0 642 419" width="642px" zoomAndPan="magnify"><defs/><g><rect fill="#FFFFFF" height="298.7969" style="stroke:#181818;stroke-width:1.0;" width="10" x="107.5" y="67.4297"/><rect fill="#FFFFFF" height="255.6641" style="stroke:#181818;stroke-width:1.0;" width="10" x="210" y="96.5625"/><rect fill="#FFFFFF" height="212.5313" style="stroke:#181818;stroke-width:1.0;" width="10" x="334" y="125.6953"/><rect fill="#FFFFFF" height="68.1328" style="stroke:#181818;stroke-width:1.0;" width="10" x="339" y="205.9609"/><rect fill="#FFFFFF" height="14" style="stroke:#181818;stroke-width:1.0;" width="10" x="463" y="154.8281"/><rect fill="#FFFFFF" height="14" style="stroke:#181818;stroke-width:1.0;" width="10" x="463" y="310.2266"/><rect fill="#FFFFFF" height="14" style="stroke:#181818;stroke-width:1.0;" width="10" x="569.5" y="240.0938"/><line style="stroke:#181818;stroke-width:0.5;stroke-dasharray:5.0,5.0;" x1="32" x2="32" y1="36.2969" y2="384.2266"/><line style="stroke:#181818;stroke-width:0.5;stroke-dasharray:5.0,5.0;" x1="112" x2="112" y1="36.2969" y2="384.2266"/><line style="stroke:#181818;stroke-width:0.5;stroke-dasharray:5.0,5.0;" x1="215" x2="215" y1="36.2969" y2="384.2266"/><line style="stroke:#181818;stroke-width:0.5;stroke-dasharray:5.0,5.0;" x1="339" x2="339" y1="36.2969" y2="384.2266"/><line style="stroke:#181818;stroke-width:0.5;stroke-dasharray:5.0,5.0;" x1="467.5" x2="467.5" y1="36.2969" y2="384.2266"/><line style="stroke:#181818;stroke-width:0.5;stroke-dasharray:5.0,5.0;" x1="574.5" x2="574.5" y1="36.2969" y2="384.2266"/><rect fill="#E2E2F0" height="30.2969" rx="2.5" ry="2.5" style="stroke:#181818;stroke-width:0.5;" width="54" x="5" y="5"/><text fill="#000000" font-family="sans-serif" font-size="14" lengthAdjust="spacing" textLength="40" x="12" y="24.9951">Actor</text><rect fill="#E2E2F0" height="30.2969" rx="2.5" ry="2.5" style="stroke:#181818;stroke-width:0.5;" width="54" x="5" y="383.2266"/><text fill="#000000" font-family="sans-serif" font-size="14" lengthAdjust="spacing" textLength="40" x="12" y="403.2217">Actor</text><rect fill="#E2E2F0" height="30.2969" rx="2.5" ry="2.5" style="stroke:#181818;stroke-width:0.5;" width="87" x="69" y="5"/><text fill="#000000" font-family="sans-serif" font-size="14" lengthAdjust="spacing" textLength="73" x="76" y="24.9951">Controller</text><rect fill="#E2E2F0" height="30.2969" rx="2.5" ry="2.5" style="stroke:#181818;stroke-width:0.5;" width="87" x="69" y="383.2266"/><text fill="#000000" font-family="sans-serif" font-size="14" lengthAdjust="spacing" textLength="73" x="76" y="403.2217">Controller</text><rect fill="#E2E2F0" height="30.2969" rx="2.5" ry="2.5" style="stroke:#181818;stroke-width:0.5;" width="98" x="166" y="5"/><text fill="#000000" font-family="sans-serif" font-size="14" lengthAdjust="spacing" textLength="84" x="173" y="24.9951">UserService</text><rect fill="#E2E2F0" height="30.2969" rx="2.5" ry="2.5" style="stroke:#181818;stroke-width:0.5;" width="98" x="166" y="383.2266"/><text fill="#000000" font-family="sans-serif" font-size="14" lengthAdjust="spacing" textLength="84" x="173" y="403.2217">UserService</text><rect fill="#E2E2F0" height="30.2969" rx="2.5" ry="2.5" style="stroke:#181818;stroke-width:0.5;" width="130" x="274" y="5"/><text fill="#000000" font-family="sans-serif" font-size="14" lengthAdjust="spacing" textLength="116" x="281" y="24.9951">UserServiceImpl</text><rect fill="#E2E2F0" height="30.2969" rx="2.5" ry="2.5" style="stroke:#181818;stroke-width:0.5;" width="130" x="274" y="383.2266"/><text fill="#000000" font-family="sans-serif" font-size="14" lengthAdjust="spacing" textLength="116" x="281" y="403.2217">UserServiceImpl</text><rect fill="#E2E2F0" height="30.2969" rx="2.5" ry="2.5" style="stroke:#181818;stroke-width:0.5;" width="69" x="433.5" y="5"/><text fill="#000000" font-family="sans-serif" font-size="14" lengthAdjust="spacing" textLength="55" x="440.5" y="24.9951">Utilities</text><rect fill="#E2E2F0" height="30.2969" rx="2.5" ry="2.5" style="stroke:#181818;stroke-width:0.5;" width="69" x="433.5" y="383.2266"/><text fill="#000000" font-family="sans-serif" font-size="14" lengthAdjust="spacing" textLength="55" x="440.5" y="403.2217">Utilities</text><rect fill="#E2E2F0" height="30.2969" rx="2.5" ry="2.5" style="stroke:#181818;stroke-width:0.5;" width="124" x="512.5" y="5"/><text fill="#000000" font-family="sans-serif" font-size="14" lengthAdjust="spacing" textLength="110" x="519.5" y="24.9951">UserRepository</text><rect fill="#E2E2F0" height="30.2969" rx="2.5" ry="2.5" style="stroke:#181818;stroke-width:0.5;" width="124" x="512.5" y="383.2266"/><text fill="#000000" font-family="sans-serif" font-size="14" lengthAdjust="spacing" textLength="110" x="519.5" y="403.2217">UserRepository</text><rect fill="#FFFFFF" height="298.7969" style="stroke:#181818;stroke-width:1.0;" width="10" x="107.5" y="67.4297"/><rect fill="#FFFFFF" height="255.6641" style="stroke:#181818;stroke-width:1.0;" width="10" x="210" y="96.5625"/><rect fill="#FFFFFF" height="212.5313" style="stroke:#181818;stroke-width:1.0;" width="10" x="334" y="125.6953"/><rect fill="#FFFFFF" height="68.1328" style="stroke:#181818;stroke-width:1.0;" width="10" x="339" y="205.9609"/><rect fill="#FFFFFF" height="14" style="stroke:#181818;stroke-width:1.0;" width="10" x="463" y="154.8281"/><rect fill="#FFFFFF" height="14" style="stroke:#181818;stroke-width:1.0;" width="10" x="463" y="310.2266"/><rect fill="#FFFFFF" height="14" style="stroke:#181818;stroke-width:1.0;" width="10" x="569.5" y="240.0938"/><polygon fill="#181818" points="95.5,63.4297,105.5,67.4297,95.5,71.4297,99.5,67.4297" style="stroke:#181818;stroke-width:1.0;"/><line style="stroke:#181818;stroke-width:1.0;" x1="32" x2="101.5" y1="67.4297" y2="67.4297"/><text fill="#000000" font-family="sans-serif" font-size="13" lengthAdjust="spacing" textLength="30" x="39" y="62.3638">login</text><polygon fill="#181818" points="198,92.5625,208,96.5625,198,100.5625,202,96.5625" style="stroke:#181818;stroke-width:1.0;"/><line style="stroke:#181818;stroke-width:1.0;" x1="117.5" x2="204" y1="96.5625" y2="96.5625"/><text fill="#000000" font-family="sans-serif" font-size="13" lengthAdjust="spacing" textLength="30" x="124.5" y="91.4966">login</text><polygon fill="#181818" points="322,121.6953,332,125.6953,322,129.6953,326,125.6953" style="stroke:#181818;stroke-width:1.0;"/><line style="stroke:#181818;stroke-width:1.0;" x1="220" x2="328" y1="125.6953" y2="125.6953"/><text fill="#000000" font-family="sans-serif" font-size="13" lengthAdjust="spacing" textLength="30" x="227" y="120.6294">login</text><polygon fill="#181818" points="451,150.8281,461,154.8281,451,158.8281,455,154.8281" style="stroke:#181818;stroke-width:1.0;"/><line style="stroke:#181818;stroke-width:1.0;" x1="344" x2="457" y1="154.8281" y2="154.8281"/><text fill="#000000" font-family="sans-serif" font-size="13" lengthAdjust="spacing" textLength="86" x="351" y="149.7622">decodeToken</text><polygon fill="#181818" points="355,164.8281,345,168.8281,355,172.8281,351,168.8281" style="stroke:#181818;stroke-width:1.0;"/><line style="stroke:#181818;stroke-width:1.0;stroke-dasharray:2.0,2.0;" x1="349" x2="467" y1="168.8281" y2="168.8281"/><line style="stroke:#181818;stroke-width:1.0;" x1="344" x2="391" y1="192.9609" y2="192.9609"/><line style="stroke:#181818;stroke-width:1.0;" x1="391" x2="391" y1="192.9609" y2="205.9609"/><line style="stroke:#181818;stroke-width:1.0;" x1="350" x2="391" y1="205.9609" y2="205.9609"/><polygon fill="#181818" points="360,201.9609,350,205.9609,360,209.9609,356,205.9609" style="stroke:#181818;stroke-width:1.0;"/><text fill="#000000" font-family="sans-serif" font-size="13" lengthAdjust="spacing" textLength="101" x="356" y="187.895">getUserByEmail</text><polygon fill="#181818" points="557.5,236.0938,567.5,240.0938,557.5,244.0938,561.5,240.0938" style="stroke:#181818;stroke-width:1.0;"/><line style="stroke:#181818;stroke-width:1.0;" x1="349" x2="563.5" y1="240.0938" y2="240.0938"/><text fill="#000000" font-family="sans-serif" font-size="13" lengthAdjust="spacing" textLength="75" x="356" y="235.0278">findByEmail</text><polygon fill="#181818" points="360,250.0938,350,254.0938,360,258.0938,356,254.0938" style="stroke:#181818;stroke-width:1.0;"/><line style="stroke:#181818;stroke-width:1.0;stroke-dasharray:2.0,2.0;" x1="354" x2="573.5" y1="254.0938" y2="254.0938"/><line style="stroke:#181818;stroke-width:1.0;stroke-dasharray:2.0,2.0;" x1="349" x2="391" y1="273.0938" y2="273.0938"/><line style="stroke:#181818;stroke-width:1.0;stroke-dasharray:2.0,2.0;" x1="391" x2="391" y1="273.0938" y2="286.0938"/><line style="stroke:#181818;stroke-width:1.0;stroke-dasharray:2.0,2.0;" x1="344" x2="391" y1="286.0938" y2="286.0938"/><polygon fill="#181818" points="354,282.0938,344,286.0938,354,290.0938,350,286.0938" style="stroke:#181818;stroke-width:1.0;"/><polygon fill="#181818" points="451,306.2266,461,310.2266,451,314.2266,455,310.2266" style="stroke:#181818;stroke-width:1.0;"/><line style="stroke:#181818;stroke-width:1.0;" x1="344" x2="457" y1="310.2266" y2="310.2266"/><text fill="#000000" font-family="sans-serif" font-size="13" lengthAdjust="spacing" textLength="100" x="351" y="305.1606">createJwtToken</text><polygon fill="#181818" points="355,320.2266,345,324.2266,355,328.2266,351,324.2266" style="stroke:#181818;stroke-width:1.0;"/><line style="stroke:#181818;stroke-width:1.0;stroke-dasharray:2.0,2.0;" x1="349" x2="467" y1="324.2266" y2="324.2266"/><polygon fill="#181818" points="231,334.2266,221,338.2266,231,342.2266,227,338.2266" style="stroke:#181818;stroke-width:1.0;"/><line style="stroke:#181818;stroke-width:1.0;stroke-dasharray:2.0,2.0;" x1="225" x2="338" y1="338.2266" y2="338.2266"/><polygon fill="#181818" points="128.5,348.2266,118.5,352.2266,128.5,356.2266,124.5,352.2266" style="stroke:#181818;stroke-width:1.0;"/><line style="stroke:#181818;stroke-width:1.0;stroke-dasharray:2.0,2.0;" x1="122.5" x2="214" y1="352.2266" y2="352.2266"/><polygon fill="#181818" points="43,362.2266,33,366.2266,43,370.2266,39,366.2266" style="stroke:#181818;stroke-width:1.0;"/><line style="stroke:#181818;stroke-width:1.0;stroke-dasharray:2.0,2.0;" x1="37" x2="111.5" y1="366.2266" y2="366.2266"/><!--SRC=[jP8z3i8m38Ltdo8Nw0KOa00nmCZF0QB4L1OXgLnJrDkJLa9DVqJfm9B1Vj_pIvn2iv2XGdjH6oE1eJrLjbQxu8M3SyXgfLp8oOCsGfKMJ7gGo29qBP7Fo1KP75D94r9Xdpiy2lULRGGm11eF8KT2M4RQeWaMB-6EgST709qq6my7YrF8nC1Hw1obAMxh_KEJMvO-bavOX9BY-zVHwqRUJXfrAXX0SvSPmxqGy_I23HZ6I1rVyjSbzC4VuxPOyeMdAM2K9_it]--></g></svg>